<?xml version="1.0" encoding="UTF-8" standalone="no"?>
<!-- Created with Inkscape (http://www.inkscape.org/) -->

<svg
   width="2000"
   height="2000"
   viewBox="0 0 529.16665 529.16666"
   version="1.1"
   id="svg1"
   xml:space="preserve"
   inkscape:version="1.3 (0e150ed6c4, 2023-07-21)"
   sodipodi:docname="logo_sd_inovacoes_vetor.svg"
   xmlns:inkscape="http://www.inkscape.org/namespaces/inkscape"
   xmlns:sodipodi="http://sodipodi.sourceforge.net/DTD/sodipodi-0.dtd"
   xmlns="http://www.w3.org/2000/svg"
   xmlns:svg="http://www.w3.org/2000/svg"><sodipodi:namedview
     id="namedview1"
     pagecolor="#505050"
     bordercolor="#eeeeee"
     borderopacity="1"
     inkscape:showpageshadow="0"
     inkscape:pageopacity="0"
     inkscape:pagecheckerboard="0"
     inkscape:deskcolor="#d1d1d1"
     inkscape:document-units="px"
     inkscape:zoom="0.15905686"
     inkscape:cx="2175.3226"
     inkscape:cy="1342.2872"
     inkscape:window-width="1360"
     inkscape:window-height="707"
     inkscape:window-x="0"
     inkscape:window-y="0"
     inkscape:window-maximized="1"
     inkscape:current-layer="layer1" /><defs
     id="defs1"><linearGradient
       id="linearGradient120651"
       inkscape:swatch="solid"><stop
         style="stop-color:#f7f7ff;stop-opacity:1;"
         offset="0"
         id="stop120649" /></linearGradient></defs><g
     inkscape:label="Camada 1"
     inkscape:groupmode="layer"
     id="layer1"><g
       id="g115294"
       transform="translate(1992.4163,-89.83925)"><g
         id="g115284"><g
           aria-label="D"
           id="text115280"
           style="font-size:32.3895px;font-family:'Noto Sans';-inkscape-font-specification:'Noto Sans';text-align:center;text-anchor:middle;fill:#0a090c;stroke-width:0.625996" /></g><g
         aria-label="INOVAÇÕES"
         id="text115288"
         style="font-size:5.43278px;font-family:'Noto Sans';-inkscape-font-specification:'Noto Sans';text-align:center;letter-spacing:0.873125px;text-anchor:middle;fill:#0a090c;stroke-width:0.130859" /><g
         aria-label="S"
         id="text115292"
         style="font-size:32.3895px;font-family:'Noto Sans';-inkscape-font-specification:'Noto Sans';text-align:center;text-anchor:middle;fill:#0a090c;stroke-width:0.625996" /></g><g
       id="g1"
       transform="matrix(7.8865362,0,0,7.8865362,-1511.816,-1566.2595)"><path
         id="path323"
         style="color:#000000;fill:#2c666e;stroke-width:0.999989;-inkscape-stroke:none"
         d="m 234.8933,202.38604 c -8.2532,-2.191 -17.0377,-1.0168 -24.4256,3.265 l -0.057,0.033 1.375,2.3908 v 3e-4 l 1.3167,2.2902 0.053,0.014 0.024,-0.014 c 6.1404,-3.5448 13.4361,-4.5055 20.2847,-2.6702 14.2624,3.822 22.7253,18.4808 18.9032,32.7426 -1.2147,4.5326 -3.6014,8.6665 -6.9196,11.9846 l -0.047,0.047 1.9522,1.9504 0.047,-0.047 c 3.6754,-3.6522 6.3251,-8.2071 7.6844,-13.207 3.5329,-13.1829 -2.4382,-26.6701 -13.7082,-33.2027 l 1.3199,-2.2859 -0.055,-0.034 c -2.4311,-1.4184 -5.0393,-2.5118 -7.7546,-3.253 z m -31.468,44.4018 -2.4615,1.4207 -2.2772,1.3149 0.033,0.058 c 4.2461,7.4029 11.2554,12.8191 19.4902,15.0603 l 5e-4,7e-4 c 2.7223,0.714 5.5252,1.0685 8.3395,1.0542 h 0.067 l -1e-4,-2.8066 -0.001,10e-5 0.001,-2.6797 h -0.066 c -2.3346,0.012 -4.6615,-0.2817 -6.9199,-0.8737 -6.8328,-1.8571 -12.6491,-6.3498 -16.1737,-12.4908 z"
         inkscape:transform-center-x="-0.84430868"
         inkscape:transform-center-y="-0.012103952"
         inkscape:export-filename="Transparente.png"
         inkscape:export-xdpi="605.25336"
         inkscape:export-ydpi="605.25336" /><path
         id="path327"
         style="color:#000000;fill:#0a090c;stroke-width:0.999989;-inkscape-stroke:none"
         d="m 235.5871,199.79694 -2e-4,6e-4 c -18.6204,-4.9903 -37.7617,6.0604 -42.7514,24.6807 -0.773,2.9485 -1.1551,5.9863 -1.1392,9.0344 v 0.065 l 2.6775,-8e-4 h 0.081 0.053 l 2.5331,6e-4 -2e-4,5e-4 2.8431,-4e-4 -5e-4,-0.066 c -0.02,-2.3336 0.2636,-4.6594 0.8473,-6.9188 0.6046,-2.2566 1.5039,-4.4246 2.6722,-6.4479 l 0.01,-0.01 0.016,-0.059 -0.044,-0.024 -2.3225,-1.3393 -2.2652,-1.3057 c 0.1919,-0.3312 0.3851,-0.6611 0.5878,-0.9837 a 32.160034,32.159316 15.001644 0 1 0.083,-0.1313 c 5.613,-8.837 15.2698,-14.4115 25.7298,-14.8519 a 32.160034,32.159316 15.001644 0 1 0.1482,-0.01 c 3.132,-0.1173 6.3343,0.224 9.5203,1.0779 2.7089,0.7263 5.3123,1.8037 7.7408,3.2065 l 0.058,0.034 1.4045,-2.4339 -0.055,-0.034 c -2.6412,-1.5261 -5.4727,-2.6987 -8.4189,-3.4892 z m 22.0579,25.3187 -0.063,0.015 -2.6446,0.7091 0.017,0.063 c 0.6683,2.4816 1.0082,5.0409 1.0115,7.611 0,2.5706 -0.3372,5.1297 -1.0027,7.6128 -1.3365,4.9869 -3.9629,9.5346 -7.6139,13.1853 l -0.044,0.047 1.9865,1.9882 0.047,-0.047 c 4.0001,-3.9997 6.8779,-8.982 8.3422,-14.4459 0.726,-2.7208 1.0919,-5.5262 1.0891,-8.3423 0,-2.8149 -0.3756,-5.6161 -1.1071,-8.3342 z"
         inkscape:transform-center-x="1.3165177"
         inkscape:transform-center-y="-6.0410804" /><g
         id="g339"
         transform="matrix(1.0633089,0,0,1.0633089,-19.279504,-880.81316)"><g
           id="g24"
           transform="matrix(0.97116223,0,0,0.97116223,146.58369,972.27695)"><g
             id="g23"><path
               id="path23"
               style="font-size:32.3895px;font-family:'Noto Sans';-inkscape-font-specification:'Noto Sans';text-align:center;text-anchor:middle;fill:#0a090c;fill-opacity:1;stroke-width:0.625996"
               d="m 86.019595,62.331761 v 2.752804 l 1.846399,0.09767 v 15.061096 c 0,0.539825 -0.313281,0.842143 -0.939477,0.906922 l -1.068669,0.09715 v 2.623096 h 5.96036 v -3.109371 h -5.17e-4 v -15.28744 h 2.882511 c 4.210631,0 6.315898,2.482773 6.315898,7.449158 0,2.547971 -0.51849,4.49137 -1.554948,5.830135 -1.036463,1.338765 -2.482791,2.008146 -4.339787,2.008146 h -1.86862 v 3.109371 h 1.803508 c 2.763901,0 5.074367,-0.863618 6.931357,-2.591056 0.9285,-0.863719 1.66263,-2.051065 2.20245,-3.562574 0.53983,-1.533101 0.80977,-3.325599 0.80977,-5.376932 0,-3.303726 -0.89599,-5.797462 -2.68821,-7.481714 -1.77062,-1.684253 -4.242947,-2.526461 -7.417114,-2.526461 z" /></g><path
             style="font-size:5.43278px;font-family:Roboto;-inkscape-font-specification:Roboto;text-align:center;letter-spacing:0.873125px;text-anchor:middle;fill:#0a090c;stroke-width:0.130859"
             d="m 69.751348,91.417923 h -0.509323 v -3.862367 h 0.509323 z m 4.77263,0 h -0.511975 l -1.944447,-2.976357 v 2.976357 H 71.55558 v -3.862367 h 0.511976 l 1.949752,2.989621 v -2.989621 h 0.50667 z m 4.748756,-1.806505 q 0,0.567683 -0.190996,0.992119 -0.190997,0.421783 -0.541156,0.644612 -0.35016,0.222828 -0.817039,0.222828 -0.456269,0 -0.809081,-0.222828 -0.352813,-0.225482 -0.549114,-0.639307 -0.193649,-0.416478 -0.198955,-0.962939 v -0.278536 q 0,-0.557072 0.193649,-0.984161 0.193649,-0.427089 0.546461,-0.65257 0.355466,-0.228134 0.811734,-0.228134 0.464227,0 0.817039,0.225481 0.355465,0.222829 0.546462,0.649918 0.190996,0.424436 0.190996,0.989466 z m -0.506671,-0.249357 q 0,-0.687055 -0.275883,-1.053131 -0.275883,-0.368729 -0.771943,-0.368729 -0.482796,0 -0.761332,0.368729 -0.275883,0.366076 -0.283841,1.018646 v 0.283842 q 0,0.665833 0.278536,1.047826 0.281189,0.379339 0.771943,0.379339 0.493406,0 0.763984,-0.358117 0.270578,-0.360771 0.278536,-1.03191 z m 3.364034,1.379417 1.103534,-3.185922 h 0.557072 l -1.432471,3.862367 H 81.907268 L 80.47745,87.555556 h 0.554419 z m 4.984848,-0.33159 h -1.618162 l -0.363423,1.008035 h -0.52524 l 1.474915,-3.862367 h 0.445658 l 1.477568,3.862367 h -0.522587 z m -1.464304,-0.419131 h 1.313099 l -0.657876,-1.806505 z m 6.560567,0.201607 q -0.07162,0.61278 -0.453616,0.947023 -0.37934,0.33159 -1.010688,0.33159 -0.684403,0 -1.098228,-0.490754 -0.411172,-0.490754 -0.411172,-1.313098 v -0.371382 q 0,-0.538503 0.190996,-0.947022 0.193649,-0.40852 0.546461,-0.626043 0.352812,-0.220176 0.817039,-0.220176 0.615432,0 0.986814,0.344854 0.371381,0.342201 0.432394,0.949675 h -0.511976 q -0.06632,-0.461574 -0.289147,-0.668486 -0.220176,-0.206913 -0.618085,-0.206913 -0.488101,0 -0.766637,0.360771 -0.275884,0.36077 -0.275884,1.026604 v 0.374034 q 0,0.628696 0.26262,1.000077 0.26262,0.371382 0.734805,0.371382 0.424436,0 0.649917,-0.190996 0.228135,-0.193649 0.302411,-0.67114 z m -1.297182,1.249433 -0.03183,0.137942 q 0.405867,0.07162 0.405867,0.458922 0,0.257314 -0.212218,0.405866 -0.212218,0.151206 -0.591558,0.151206 l -0.01857,-0.283842 q 0.209565,0 0.323632,-0.06897 0.11672,-0.06897 0.11672,-0.193649 0,-0.116719 -0.08489,-0.172427 -0.08489,-0.05571 -0.344854,-0.07958 l 0.08489,-0.355466 z m 5.836372,-1.830379 q 0,0.567683 -0.190996,0.992119 -0.190997,0.421783 -0.541156,0.644612 -0.35016,0.222828 -0.817039,0.222828 -0.456269,0 -0.809081,-0.222828 -0.352813,-0.225482 -0.549114,-0.639307 -0.193649,-0.416478 -0.198955,-0.962939 v -0.278536 q 0,-0.557072 0.193649,-0.984161 0.193649,-0.427089 0.546461,-0.65257 0.355466,-0.228134 0.811734,-0.228134 0.464227,0 0.817039,0.225481 0.355465,0.222829 0.546462,0.649918 0.190996,0.424436 0.190996,0.989466 z m -0.506671,-0.249357 q 0,-0.687055 -0.275883,-1.053131 -0.275883,-0.368729 -0.771943,-0.368729 -0.482796,0 -0.761332,0.368729 -0.275883,0.366076 -0.283841,1.018646 v 0.283842 q 0,0.665833 0.278536,1.047826 0.281189,0.379339 0.771943,0.379339 0.493406,0 0.763984,-0.358117 0.270578,-0.360771 0.278536,-1.03191 z m -0.09815,-2.761486 q 0,0.286495 -0.164469,0.464227 -0.161817,0.177733 -0.405867,0.177733 -0.108762,0 -0.188344,-0.02653 -0.07958,-0.02653 -0.209565,-0.108761 -0.127331,-0.08223 -0.185691,-0.09815 -0.05571,-0.01857 -0.129983,-0.01857 -0.108762,0 -0.185691,0.08489 -0.07693,0.08223 -0.07693,0.212218 L 94.2701,87.269062 q 0,-0.283842 0.159164,-0.469532 0.161816,-0.185691 0.408519,-0.185691 0.09285,0 0.167122,0.02653 0.07428,0.02653 0.201607,0.103456 0.127331,0.07693 0.193649,0.100804 0.06897,0.02387 0.151205,0.02387 0.114067,0 0.188344,-0.09019 0.07693,-0.09019 0.07693,-0.209565 z m 4.425123,3.032064 h -1.673869 v 1.368806 h 1.944449 v 0.416478 h -2.453772 v -3.862367 h 2.427242 v 0.419131 h -1.917919 v 1.241475 h 1.673869 z m 2.91572,0.06367 q -0.65522,-0.188344 -0.95498,-0.461574 -0.2971,-0.275884 -0.2971,-0.679098 0,-0.456268 0.36342,-0.753374 0.36608,-0.299757 0.94968,-0.299757 0.3979,0 0.70827,0.153858 0.31302,0.153858 0.4828,0.424436 0.17243,0.270577 0.17243,0.591557 h -0.51198 q 0,-0.35016 -0.22283,-0.549114 -0.22283,-0.201607 -0.62869,-0.201607 -0.37669,0 -0.58891,0.167122 -0.20956,0.164469 -0.20956,0.458921 0,0.236093 0.19895,0.400561 0.20161,0.161817 0.68175,0.297106 0.4828,0.135289 0.75337,0.299757 0.27323,0.161817 0.40322,0.37934 0.13263,0.217523 0.13263,0.511976 0,0.469532 -0.36607,0.753374 -0.36608,0.281188 -0.97886,0.281188 -0.39791,0 -0.74276,-0.151205 -0.34485,-0.153858 -0.5332,-0.41913 -0.18569,-0.265273 -0.18569,-0.602169 h 0.51198 q 0,0.35016 0.25731,0.55442 0.25997,0.201607 0.69236,0.201607 0.40322,0 0.61809,-0.164469 0.21487,-0.164469 0.21487,-0.448311 0,-0.283841 -0.19896,-0.437699 -0.19895,-0.156511 -0.72154,-0.307716 z"
             id="text23"
             aria-label="INOVAÇÕES" /><path
             style="font-size:32.3895px;font-family:'Bree Serif';-inkscape-font-specification:'Bree Serif';text-align:center;text-anchor:middle;fill:#0a090c;stroke-width:0.625996"
             d="m 75.655145,80.955673 q 3.88674,0 3.88674,-3.109392 0,-1.619475 -1.716643,-2.396823 -0.906906,-0.453453 -2.364434,-0.842127 -1.425137,-0.388674 -2.396822,-0.777348 -0.939296,-0.421064 -1.910981,-1.133633 -1.91098,-1.425138 -1.91098,-4.372582 0,-2.979834 2.040538,-4.664088 2.072928,-1.716644 5.376657,-1.716644 3.336118,0 6.186394,1.32797 v 4.858425 l -3.303729,0.226726 v -1.878591 q 0,-0.485842 -0.129558,-0.712569 -0.356284,-0.6154 -2.299654,-0.6154 -1.910981,0 -2.850276,0.680179 -0.906906,0.68018 -0.906906,2.105318 0,1.036464 0.777348,1.813812 0.518232,0.518232 1.522306,0.874516 1.036464,0.323895 2.170097,0.68018 1.166022,0.356284 2.040538,0.777348 0.906906,0.421063 1.878591,1.166022 1.97576,1.457527 1.97576,4.50214 0,3.044613 -2.202486,4.793646 -2.170097,1.749033 -5.765331,1.749033 -3.562845,0 -6.413121,-1.327969 v -5.117541 l 3.303729,-0.226727 v 1.97576 q 0,0.485842 0.129558,0.712569 0.129558,0.226726 0.777348,0.453453 0.68018,0.194337 2.105317,0.194337 z"
             id="text24"
             aria-label="S" /></g><path
           id="rect27"
           style="fill:#0a090c;stroke-width:0.0245387"
           d="m 227.37961,1064.0767 h 7.62515 v 0.2108 h -7.62515 z" /><path
           id="rect28"
           style="fill:#0a090c;stroke-width:0.019469"
           d="m 228.79245,1065.5524 h 4.7999 v 0.2108 h -4.7999 z" /><path
           id="rect30"
           style="fill:#0a090c;stroke-width:0.0154455"
           d="m 229.68179,1067.0281 h 3.02128 v 0.2108 h -3.02128 z" /></g></g></g></svg>
